<?xml version="1.0" standalone="no"?>
<!DOCTYPE svg PUBLIC "-//W3C//DTD SVG 20010904//EN"
 "http://www.w3.org/TR/2001/REC-SVG-20010904/DTD/svg10.dtd">
<svg version="1.0" xmlns="http://www.w3.org/2000/svg"
 width="1200.000000pt" height="970.000000pt" viewBox="0 0 1200.000000 970.000000"
 preserveAspectRatio="xMidYMid meet">

<g transform="translate(0.000000,970.000000) scale(0.100000,-0.100000)"
fill="#2F6BFF" stroke="none">
<path d="M9981 9679 c-219 -57 -393 -195 -487 -389 l-39 -80 -115 0 c-148 0
-473 -24 -665 -49 -1661 -216 -3610 -1069 -5280 -2310 -530 -394 -910 -724
-1385 -1200 -730 -731 -1217 -1383 -1575 -2106 -212 -429 -317 -732 -389
-1125 -98 -534 -20 -1054 214 -1435 130 -212 346 -427 566 -563 325 -202 716
-327 1204 -387 181 -22 654 -31 880 -16 935 62 2000 346 3090 826 502 221
1390 689 1390 733 0 12 31 33 98 66 747 370 1400 1032 1795 1821 217 436 353
884 419 1390 30 229 33 743 5 960 -68 535 -201 985 -423 1428 -247 492 -582
923 -1007 1296 -65 57 -116 105 -114 107 5 5 220 49 417 85 223 40 469 75 620
88 69 6 148 13 176 16 l51 5 25 -78 c103 -310 369 -505 688 -505 128 0 216 20
326 73 92 45 212 149 264 230 18 28 37 50 43 50 16 0 174 -87 257 -143 165
-110 339 -276 437 -418 299 -435 380 -1083 214 -1729 -127 -495 -440 -1124
-911 -1830 -135 -204 -165 -251 -138 -220 146 171 372 471 515 685 421 633
685 1228 797 1800 47 238 59 561 31 780 -81 619 -419 1082 -1002 1373 l-113
56 0 45 c0 122 -71 309 -158 417 -170 211 -475 318 -721 253z m-1885 -1182
c247 -205 415 -377 603 -612 469 -588 758 -1278 857 -2052 24 -190 30 -654 10
-853 -36 -353 -97 -639 -206 -955 -113 -328 -292 -682 -484 -959 l-63 -91
-401 -5 -402 -5 -72 -71 c-437 -426 -1001 -741 -1579 -883 -187 -46 -399 -80
-399 -64 0 11 -31 -13 655 493 308 228 673 497 810 599 138 101 311 229 385
284 74 55 139 103 144 108 6 5 -261 9 -620 9 l-631 0 -459 -602 c-700 -921
-710 -933 -720 -932 -10 0 -186 227 -767 991 l-412 543 -630 0 c-346 0 -625
-4 -620 -8 37 -31 136 -105 385 -288 639 -471 1567 -1158 1593 -1180 28 -24
28 -24 5 -24 -44 0 -263 40 -384 69 -446 110 -886 321 -1259 604 -107 82 -266
220 -340 296 l-59 61 -489 0 -488 0 11 -21 c24 -45 194 -261 297 -379 361
-412 802 -748 1308 -995 588 -288 1182 -426 1835 -428 473 -1 905 67 1358 215
51 16 96 28 98 25 7 -7 -275 -117 -441 -172 -618 -204 -1606 -406 -2375 -487
-277 -29 -760 -31 -955 -4 -612 83 -1111 282 -1443 575 -527 465 -683 1203
-425 2004 161 502 488 1059 988 1682 933 1162 2078 2067 3500 2766 591 290
1210 539 1850 744 132 42 251 80 265 85 45 15 54 11 166 -83z"/>
<path d="M4518 6362 c-363 -373 -650 -890 -779 -1402 -20 -82 -17 -90 36 -90
30 0 267 -36 296 -45 12 -4 31 18 70 77 253 392 667 833 1072 1146 53 41 97
76 97 77 0 4 -175 102 -270 152 -92 48 -297 144 -366 172 l-52 20 -104 -107z"/>
<path d="M6290 6412 c-207 -90 -550 -272 -550 -290 0 -4 29 -27 63 -52 209
-151 536 -457 742 -695 118 -136 299 -372 374 -488 31 -48 48 -66 60 -63 31
10 266 46 299 46 19 0 35 6 38 14 3 8 -8 66 -25 129 -135 507 -397 970 -762
1350 l-104 108 -135 -59z"/>
<path d="M5393 5892 c-320 -240 -597 -510 -845 -822 -108 -136 -212 -290 -202
-299 5 -4 61 -20 124 -35 297 -72 628 -191 1000 -359 l56 -25 74 35 c274 128
694 278 955 343 172 42 158 36 144 62 -43 84 -270 372 -433 550 -182 199 -468
451 -687 607 l-56 40 -130 -97z"/>
<path d="M2746 4682 c-24 -6 -33 -18 -57 -77 -47 -120 -62 -220 -56 -379 7
-196 49 -334 146 -489 l43 -67 315 0 316 0 -6 38 c-33 204 -41 582 -18 825 7
76 11 140 8 143 -8 8 -659 14 -691 6z"/>
<path d="M7708 4681 c-53 -3 -98 -8 -101 -11 -2 -3 2 -59 9 -125 22 -207 17
-613 -12 -827 l-6 -48 311 0 310 0 24 33 c77 104 147 278 168 419 23 157 -3
371 -61 506 -21 48 -22 49 -73 56 -61 7 -428 5 -569 -3z"/>
<path d="M3661 4523 c-17 -193 -23 -388 -14 -481 l8 -83 49 123 c28 68 96 214
151 326 95 187 100 203 81 207 -30 6 -234 35 -250 35 -9 0 -16 -34 -25 -127z"/>
<path d="M7265 4639 c-82 -10 -175 -29 -175 -34 0 -3 24 -48 53 -102 67 -124
118 -231 193 -408 l59 -139 3 189 c3 169 -10 421 -25 483 -6 24 -4 24 -108 11z"/>
<path d="M4179 4528 c-11 -18 -66 -125 -122 -238 -102 -203 -159 -336 -223
-520 l-33 -95 316 -3 315 -2 115 86 c200 150 446 311 656 428 26 15 47 31 47
35 0 5 -12 14 -27 19 -16 6 -93 36 -172 67 -161 62 -353 128 -511 174 -116 33
-308 81 -328 81 -7 0 -21 -15 -33 -32z"/>
<path d="M6696 4529 c-149 -37 -381 -107 -528 -160 -195 -69 -369 -142 -366
-151 2 -6 67 -47 145 -93 172 -100 361 -226 536 -356 l132 -99 313 0 314 0 -7
33 c-23 101 -154 414 -271 644 -98 192 -111 213 -133 212 -9 0 -70 -14 -135
-30z"/>
<path d="M5277 9560 c-932 -64 -1767 -400 -2482 -999 -136 -113 -407 -390
-523 -533 -315 -390 -562 -828 -714 -1267 -16 -46 -27 -85 -25 -88 3 -2 58 45
123 105 906 826 1897 1524 3024 2127 319 171 878 433 1207 566 73 29 130 56
125 60 -25 23 -531 43 -735 29z"/>
<path d="M6220 9434 c-1569 -614 -3052 -1523 -4307 -2640 -168 -150 -449 -415
-471 -446 -20 -28 -76 -275 -58 -257 3 2 98 95 213 205 350 338 610 569 955
844 1152 923 2419 1653 3768 2171 112 44 208 79 212 79 5 0 25 7 46 16 l37 16
-120 29 c-66 15 -129 28 -140 28 -11 0 -72 -20 -135 -45z"/>
<path d="M6613 9250 c-771 -276 -1588 -663 -2313 -1095 -857 -510 -1613 -1068
-2308 -1703 -70 -63 -245 -233 -389 -376 -291 -291 -265 -251 -279 -425 l-6
-84 68 74 c146 159 498 509 670 668 939 868 2050 1629 3234 2215 548 272 1030
473 1561 651 119 40 222 76 229 80 19 12 -154 75 -203 75 -26 -1 -126 -31
-264 -80z"/>
</g>
</svg>
