<svg width="92" height="92" viewBox="0 0 92 92" fill="none" xmlns="http://www.w3.org/2000/svg">
<mask id="mask0_152_695" style="mask-type:alpha" maskUnits="userSpaceOnUse" x="0" y="0" width="92" height="92">
<mask id="mask1_152_695" style="mask-type:alpha" maskUnits="userSpaceOnUse" x="0" y="0" width="92" height="92">
<circle cx="46" cy="46" r="46" fill="#E2E3ED"/>
</mask>
<g mask="url(#mask1_152_695)">
<circle cx="46" cy="46" r="46" fill="#F3F6FF"/>
</g>
</mask>
<g mask="url(#mask0_152_695)">
</g>
<g clip-path="url(#clip0_152_695)">
<rect width="92" height="92" rx="46" fill="url(#paint0_linear_152_695)"/>
<path fill-rule="evenodd" clip-rule="evenodd" d="M111.526 115.141C111.526 115.141 102.662 101.547 92.845 90.257C83.893 79.9628 77.1367 73.9606 70.3992 79.3631C61.9377 86.1457 72.5132 98.2735 78.6461 105.76C83.0595 111.146 93.3102 121.526 99.0792 126.539C108.282 134.534 118.555 123.028 111.526 115.141Z" fill="#FFC999"/>
<path fill-rule="evenodd" clip-rule="evenodd" d="M83.1113 111.62C76.9785 104.134 57.9753 89.6459 68.7331 78.1877C78.3971 67.895 86.614 81.3449 97.9067 95.5909L83.1113 111.62Z" fill="#E4EBF7"/>
<path fill-rule="evenodd" clip-rule="evenodd" d="M-15.6397 115.141C-15.6397 115.141 -6.77611 101.547 3.04094 90.257C11.993 79.9628 18.7485 73.9606 25.4868 79.3632C33.9482 86.1457 23.3727 98.2735 17.2399 105.76C12.8265 111.146 2.57582 121.526 -3.19319 126.539C-12.3958 134.534 -22.669 123.028 -15.6397 115.141Z" fill="#FFC999"/>
<path fill-rule="evenodd" clip-rule="evenodd" d="M12.7746 111.62C18.9074 104.134 39.1627 87.9348 28.4049 76.4759C18.7409 66.184 9.27194 81.3449 -2.02075 95.5909L12.7746 111.62Z" fill="#CAEDFF"/>
<path fill-rule="evenodd" clip-rule="evenodd" d="M58.0913 53.2244L58.1168 44.5359C58.1168 44.5359 64.7696 40.2831 65.621 44.6932C66.4875 49.1883 63.5565 52.9723 60.6322 53.4877C58.7117 53.8263 58.0913 53.2244 58.0913 53.2244Z" fill="#FFC999"/>
<path fill-rule="evenodd" clip-rule="evenodd" d="M37.0447 53.2244L37.0184 44.5359C37.0184 44.5359 30.3657 40.2831 29.515 44.6932C28.6477 49.1883 31.5907 53.5374 34.5038 53.4877C36.4535 53.4546 37.0447 53.2244 37.0447 53.2244Z" fill="#FFC999"/>
<path fill-rule="evenodd" clip-rule="evenodd" d="M60.8809 47.0649C59.7601 56.5931 56.8673 63.6608 47.3624 63.6608C37.435 63.6608 35.1109 54.268 34.0554 46.2884C32.0809 31.3682 40.8582 27.7859 48.2071 27.7859C55.5567 27.7859 62.3595 34.4946 60.8809 47.0649Z" fill="#FFC999"/>
<path fill-rule="evenodd" clip-rule="evenodd" d="M33.6139 70.1624C33.6139 70.1624 37.1293 79.4791 48.2074 79.4791C61.068 79.4791 61.6937 69.8155 61.6937 69.8155L58.7019 68.8539C58.0087 68.6304 57.5189 68.0126 57.4649 67.2843C57.2811 64.8261 56.8699 58.7809 56.6156 50.8412C45.5705 47.2016 39.4602 50.5267 39.4602 50.5267C39.4602 50.5267 38.8428 60.1669 38.2711 67.1353C38.2148 67.8193 37.7767 68.4114 37.1383 68.6605C36.0438 69.0871 34.3753 69.7576 33.6139 70.1624Z" fill="#FFC999"/>
<path fill-rule="evenodd" clip-rule="evenodd" d="M58.5162 40.2863C55.8485 38.4616 55.1778 35.2006 55.1778 35.2006C55.3939 35.3006 48.4163 38.8303 44.8281 39.6497C41.7666 40.3488 39.7703 39.5158 43.3495 35.6249C39.3974 37.8349 36.9098 39.5497 35.624 40.5038C34.945 41.0072 34.5399 41.7942 34.5249 42.6422L34.4071 49.1124L31.8722 43.0395C31.8722 43.0395 30.0425 43.746 29.197 41.9101C28.128 39.585 31.098 34.883 31.098 34.883C31.098 34.883 28.5526 35.6332 28.9157 32.8702C29.2788 30.108 36.2384 26.5144 36.2384 26.5144C36.2384 26.5144 34.1191 26.4015 34.9188 24.2653C35.7177 22.1299 44.1237 22.701 44.1237 22.701C44.1237 22.701 42.7156 20.4414 45.7478 20.2195C49.1777 19.9681 54.967 24.3963 54.967 24.3963C54.967 24.3963 59.1906 20.4414 60.0121 26.9771C64.2604 27.6445 65.9506 31.4579 62.8523 32.5881C65.9506 35.2713 66.1967 37.0373 63.0984 37.3194C64.7886 39.5798 65.3167 42.722 62.1486 43.8867L60.4584 49.2539L60.1464 43.1975C60.0863 42.0252 59.4832 40.9477 58.5162 40.2863Z" fill="#253368"/>
<path d="M50.9685 41.5872C52.4014 41.238 53.88 41.1146 55.2792 41.3544C55.8617 41.4543 56.4144 41.6164 56.9314 41.8466C57.2155 41.9731 57.3435 42.3065 57.2175 42.5914C57.0914 42.8763 56.759 43.0047 56.4749 42.8783C56.0464 42.6875 55.5832 42.5516 55.0896 42.467C53.8634 42.2568 52.5305 42.368 51.2342 42.6839C51.002 42.7405 50.7864 42.8003 50.5904 42.8605L50.4471 42.9057C50.3104 42.9499 50.2166 42.9835 50.1715 43.0009C49.8817 43.1133 49.5559 42.9687 49.4439 42.678C49.3318 42.3873 49.476 42.0605 49.7659 41.9482L49.9586 41.879C50.0011 41.8645 50.0488 41.8486 50.1013 41.8316C50.3594 41.748 50.6502 41.6648 50.9685 41.5872Z" fill="#253368"/>
<path d="M44.0601 42.1594C44.1798 42.0933 44.3268 42.1249 44.4101 42.2276L44.4381 42.2694L45.6002 44.3875C45.6157 44.4159 45.6262 44.4466 45.6312 44.4784L45.6346 44.5265L45.5322 51.0001L47.5548 51.3809C47.6907 51.4065 47.7849 51.5272 47.7817 51.6616L47.7769 51.7068C47.7514 51.8431 47.631 51.9376 47.4971 51.9345L47.452 51.9296L45.1992 51.5052C45.0807 51.4829 44.9919 51.3874 44.9751 51.271L44.9723 51.2265L45.0766 44.5913L43.9504 42.5386C43.8846 42.4185 43.916 42.271 44.0184 42.1875L44.0601 42.1594Z" fill="#DD936F"/>
<path fill-rule="evenodd" clip-rule="evenodd" d="M42.5752 46.4998C42.5752 47.6699 41.9128 48.6187 41.0958 48.6187C40.2796 48.6187 39.6179 47.6699 39.6179 46.4998C39.6179 45.3298 40.2796 44.3817 41.0958 44.3817C41.9128 44.3817 42.5752 45.3298 42.5752 46.4998Z" fill="#253368"/>
<path fill-rule="evenodd" clip-rule="evenodd" d="M54.7556 46.4998C54.7556 47.6699 54.0932 48.6187 53.277 48.6187C52.46 48.6187 51.7983 47.6699 51.7983 46.4998C51.7983 45.3298 52.46 44.3817 53.277 44.3817C54.0932 44.3817 54.7556 45.3298 54.7556 46.4998Z" fill="#253368"/>
<path d="M48.8519 57.5881C49.0056 57.5881 49.1302 57.7131 49.1302 57.8673C49.1302 58.006 49.0293 58.1211 48.897 58.1428L48.8519 58.1464H46.458C46.3043 58.1464 46.1797 58.0214 46.1797 57.8673C46.1797 57.7285 46.2806 57.6134 46.4129 57.5918L46.458 57.5881H48.8519Z" fill="#DD936F"/>
<path d="M38.2078 41.768C39.8177 41.2815 41.5163 41.3037 43.1179 41.6298C43.5492 41.7177 43.8711 41.8067 44.0561 41.869C44.3507 41.9683 44.5093 42.2883 44.4103 42.5837C44.318 42.8595 44.0339 43.0164 43.7569 42.9554L43.4955 42.8789C43.3202 42.8304 43.1185 42.7816 42.894 42.7359C41.459 42.4437 39.9382 42.4238 38.5325 42.8487C38.2703 42.9279 38.0157 43.0221 37.7692 43.1319C37.4852 43.2584 37.1527 43.1301 37.0266 42.8452C36.9005 42.5604 37.0285 42.2269 37.3124 42.1004C37.6025 41.9712 37.9013 41.8607 38.2078 41.768Z" fill="#253368"/>
<path d="M41.5571 62.2417C41.6376 62.1104 41.8091 62.0694 41.94 62.1502C43.7097 63.2425 45.6053 63.8537 47.5496 63.8537C49.4946 63.8537 51.4422 63.2689 53.2928 62.2287C53.4269 62.1534 53.5965 62.2013 53.6717 62.3358C53.7468 62.4703 53.699 62.6404 53.5649 62.7158C51.6362 63.7999 49.5976 64.4121 47.5496 64.4121C45.4947 64.4121 43.5007 63.7691 41.6482 62.6257C41.5173 62.5449 41.4765 62.373 41.5571 62.2417Z" fill="#DD936F"/>
<path fill-rule="evenodd" clip-rule="evenodd" d="M43.406 53.666C43.406 53.666 47.4511 54.2574 51.1945 53.3861C51.1945 53.3861 50.3573 55.7691 47.6844 55.9625C44.3107 56.207 43.406 53.666 43.406 53.666Z" fill="white"/>
<path d="M51.1229 53.076C50.873 53.1342 50.6174 53.1867 50.3565 53.2337C48.5096 53.5665 46.5443 53.6106 44.7023 53.4762L44.3356 53.4469C44.1888 53.4343 44.0513 53.421 43.9237 53.4076L43.682 53.3806C43.5688 53.3671 43.4911 53.3568 43.4519 53.351C43.2151 53.3164 43.0268 53.5471 43.1073 53.773C43.2249 54.1035 43.4962 54.5773 43.9702 55.0486C44.8465 55.9198 46.0807 56.3978 47.7074 56.2799C48.919 56.1923 49.8786 55.6844 50.6043 54.8965C50.8841 54.5927 51.1092 54.2679 51.2854 53.9424C51.3924 53.7447 51.4602 53.5879 51.494 53.4919C51.5772 53.255 51.3669 53.0193 51.1229 53.076ZM50.6147 53.8323L50.5608 53.9195C50.4399 54.1059 50.2993 54.2895 50.1381 54.4645C49.5167 55.1392 48.7034 55.5696 47.6617 55.645C46.2211 55.7494 45.1653 55.3405 44.417 54.5965L44.3044 54.4793C44.1957 54.3609 44.0989 54.239 44.0133 54.116L43.9705 54.052L44.281 54.0812C46.2782 54.2539 48.4353 54.2266 50.4687 53.8603L50.6147 53.8323Z" fill="#FF7A46"/>
<path fill-rule="evenodd" clip-rule="evenodd" d="M26.7149 133.678C21.4958 143.177 27.2783 143.847 27.2783 143.847C39.6542 144.691 68.3972 143.847 68.3972 143.847C74.969 139 70.6493 132.548 70.6493 132.548C70.6493 132.548 84.0358 78.7294 79.7597 75.6654C75.8167 72.8408 68.8046 70.6158 59.5517 69.0628C59.2944 69.6406 56.7009 74.1478 48.0407 74.2539C38.5612 74.3697 36.5229 70.1034 36.1793 69.3555C28.4178 70.3216 23.5198 70.9243 18.6885 73.9341C17.1964 74.8626 18.2099 98.0039 26.7149 133.678Z" fill="#CAEDFF"/>
<path d="M61.2129 73.0882C61.3412 73.0004 61.5163 73.0335 61.6039 73.1622C61.6915 73.2909 61.6584 73.4665 61.5301 73.5543C54.534 78.3442 47.1189 78.7216 40.2886 76.4924C39.4377 76.2147 38.675 75.9169 38.0112 75.6188L37.7455 75.4969C37.6616 75.4575 37.5824 75.4195 37.5079 75.3829L37.2455 75.2499C37.2192 75.236 37.1983 75.2247 37.1829 75.2162C37.0468 75.1409 36.9974 74.9693 37.0724 74.8328C37.1474 74.6964 37.3185 74.6468 37.4546 74.722L37.5967 74.7967L37.6522 74.8248C37.819 74.9087 38.0158 75.0025 38.2412 75.1038C38.8872 75.3939 39.6314 75.6845 40.4627 75.9558C47.1411 78.1354 54.3791 77.767 61.2129 73.0882Z" fill="#F7FAFF"/>
<path d="M19.4908 91.4511C19.6444 91.4277 19.7879 91.5336 19.8112 91.6877L20.3612 95.2744L20.8689 98.5425C21.6145 103.317 22.3768 108.091 23.1182 112.59L23.631 115.677L24.1007 118.457C25.3363 125.703 26.3269 130.958 26.9876 133.61C27.0253 133.761 26.9336 133.914 26.7829 133.952C26.6322 133.989 26.4794 133.898 26.4418 133.746L26.3067 133.188C25.6105 130.23 24.6032 124.801 23.362 117.468L22.9629 115.094L22.7339 113.716C22.0525 109.601 21.3507 105.235 20.6583 100.833L20.0155 96.7193C19.8715 95.7916 19.7349 94.9067 19.6065 94.0717L19.2549 91.7724C19.2316 91.6184 19.3372 91.4745 19.4908 91.4511Z" fill="#A3B5D6"/>
</g>
<defs>
<linearGradient id="paint0_linear_152_695" x1="2.81029" y1="5.94828" x2="103.998" y2="21.0326" gradientUnits="userSpaceOnUse">
<stop stop-color="#3EB0F5"/>
<stop offset="1" stop-color="#0AA0FF"/>
</linearGradient>
<clipPath id="clip0_152_695">
<rect width="92" height="92" rx="46" fill="white"/>
</clipPath>
</defs>
</svg>
