<svg width="24" height="24" viewBox="0 0 24 24" fill="none" xmlns="http://www.w3.org/2000/svg">
<path d="M12 1L3 5V11C3 16.55 6.84 21.74 12 23C17.16 21.74 21 16.55 21 11V5L12 1Z" fill="url(#paint0_linear_152_706)"/>
<path d="M19 11C19 15.52 16.02 19.69 12 20.93C7.98 19.69 5 15.52 5 11V6.3L12 3.19L19 6.3V11Z" fill="url(#paint1_linear_152_706)"/>
<path d="M7.41 11.59L6 13L10 17L18 9L16.59 7.58L10 14.17L7.41 11.59Z" fill="#A3BBFF"/>
<defs>
<linearGradient id="paint0_linear_152_706" x1="-2.21053" y1="-22.375" x2="28.988" y2="-17.7124" gradientUnits="userSpaceOnUse">
<stop stop-color="#3E60F9"/>
<stop offset="1" stop-color="#3D54F8"/>
</linearGradient>
<linearGradient id="paint1_linear_152_706" x1="0.947368" y1="-15.6587" x2="25.2499" y2="-12.1555" gradientUnits="userSpaceOnUse">
<stop stop-color="#3E60F9"/>
<stop offset="1" stop-color="#3D54F8"/>
</linearGradient>
</defs>
</svg>
