<svg width="64" height="64" viewBox="0 0 64 64" fill="none" xmlns="http://www.w3.org/2000/svg">
<rect width="64" height="64" rx="32" fill="#151D3B"/>
<g clip-path="url(#clip0_281_5836)">
<path d="M36.0002 21.3333H40.0002C40.3684 21.3333 40.6669 21.0348 40.6669 20.6666V16.6666C40.6669 16.2985 40.3684 16 40.0002 16H36.0002C31.9519 16.0044 28.6712 19.2851 28.6669 23.3333V28H24.0002C23.632 28 23.3335 28.2985 23.3335 28.6667V32.6667C23.3335 33.0349 23.632 33.3334 24.0002 33.3334H28.6669V47.3334C28.6669 47.7016 28.9654 48.0001 29.3336 48.0001H33.3336C33.7017 48.0001 34.0002 47.7016 34.0002 47.3334V33.3334H38.6669C38.9537 33.3332 39.2083 33.1495 39.2989 32.8774L40.6322 28.8774C40.7486 28.5281 40.5597 28.1506 40.2104 28.0342C40.1427 28.0116 40.0717 28.0001 40.0002 28H34.0002V23.3333C34.0002 22.2288 34.8956 21.3333 36.0002 21.3333Z" fill="#0075FF"/>
</g>
<defs>
<clipPath id="clip0_281_5836">
<rect width="32" height="32" fill="white" transform="translate(16 16)"/>
</clipPath>
</defs>
</svg>
