<svg width="199" height="199" viewBox="0 0 199 199" fill="none" xmlns="http://www.w3.org/2000/svg">
<path d="M199 0H0V199H199V0Z" fill="white"/>
<path d="M18.4418 12.4375H12.4375V18.4418H18.4418V12.4375Z" fill="black"/>
<path d="M24.4461 12.4375H18.4418V18.4418H24.4461V12.4375Z" fill="black"/>
<path d="M30.4504 12.4375H24.4461V18.4418H30.4504V12.4375Z" fill="black"/>
<path d="M36.4547 12.4375H30.4504V18.4418H36.4547V12.4375Z" fill="black"/>
<path d="M42.4591 12.4375H36.4547V18.4418H42.4591V12.4375Z" fill="black"/>
<path d="M48.4634 12.4375H42.4591V18.4418H48.4634V12.4375Z" fill="black"/>
<path d="M54.4677 12.4375H48.4634V18.4418H54.4677V12.4375Z" fill="black"/>
<path d="M66.4763 12.4375H60.472V18.4418H66.4763V12.4375Z" fill="black"/>
<path d="M72.4806 12.4375H66.4763V18.4418H72.4806V12.4375Z" fill="black"/>
<path d="M84.4892 12.4375H78.4849V18.4418H84.4892V12.4375Z" fill="black"/>
<path d="M114.511 12.4375H108.506V18.4418H114.511V12.4375Z" fill="black"/>
<path d="M120.515 12.4375H114.511V18.4418H120.515V12.4375Z" fill="black"/>
<path d="M126.519 12.4375H120.515V18.4418H126.519V12.4375Z" fill="black"/>
<path d="M132.524 12.4375H126.519V18.4418H132.524V12.4375Z" fill="black"/>
<path d="M138.528 12.4375H132.524V18.4418H138.528V12.4375Z" fill="black"/>
<path d="M150.537 12.4375H144.532V18.4418H150.537V12.4375Z" fill="black"/>
<path d="M156.541 12.4375H150.537V18.4418H156.541V12.4375Z" fill="black"/>
<path d="M162.545 12.4375H156.541V18.4418H162.545V12.4375Z" fill="black"/>
<path d="M168.55 12.4375H162.545V18.4418H168.55V12.4375Z" fill="black"/>
<path d="M174.554 12.4375H168.55V18.4418H174.554V12.4375Z" fill="black"/>
<path d="M180.558 12.4375H174.554V18.4418H180.558V12.4375Z" fill="black"/>
<path d="M186.562 12.4375H180.558V18.4418H186.562V12.4375Z" fill="black"/>
<path d="M18.4418 18.4418H12.4375V24.4461H18.4418V18.4418Z" fill="black"/>
<path d="M54.4677 18.4418H48.4634V24.4461H54.4677V18.4418Z" fill="black"/>
<path d="M72.4806 18.4418H66.4763V24.4461H72.4806V18.4418Z" fill="black"/>
<path d="M90.4935 18.4418H84.4892V24.4461H90.4935V18.4418Z" fill="black"/>
<path d="M120.515 18.4418H114.511V24.4461H120.515V18.4418Z" fill="black"/>
<path d="M126.519 18.4418H120.515V24.4461H126.519V18.4418Z" fill="black"/>
<path d="M132.524 18.4418H126.519V24.4461H132.524V18.4418Z" fill="black"/>
<path d="M138.528 18.4418H132.524V24.4461H138.528V18.4418Z" fill="black"/>
<path d="M150.537 18.4418H144.532V24.4461H150.537V18.4418Z" fill="black"/>
<path d="M186.562 18.4418H180.558V24.4461H186.562V18.4418Z" fill="black"/>
<path d="M18.4418 24.4461H12.4375V30.4504H18.4418V24.4461Z" fill="black"/>
<path d="M30.4504 24.4461H24.4461V30.4504H30.4504V24.4461Z" fill="black"/>
<path d="M36.4547 24.4461H30.4504V30.4504H36.4547V24.4461Z" fill="black"/>
<path d="M42.4591 24.4461H36.4547V30.4504H42.4591V24.4461Z" fill="black"/>
<path d="M54.4677 24.4461H48.4634V30.4504H54.4677V24.4461Z" fill="black"/>
<path d="M72.4806 24.4461H66.4763V30.4504H72.4806V24.4461Z" fill="black"/>
<path d="M84.4892 24.4461H78.4849V30.4504H84.4892V24.4461Z" fill="black"/>
<path d="M102.502 24.4461H96.4978V30.4504H102.502V24.4461Z" fill="black"/>
<path d="M120.515 24.4461H114.511V30.4504H120.515V24.4461Z" fill="black"/>
<path d="M126.519 24.4461H120.515V30.4504H126.519V24.4461Z" fill="black"/>
<path d="M132.524 24.4461H126.519V30.4504H132.524V24.4461Z" fill="black"/>
<path d="M150.537 24.4461H144.532V30.4504H150.537V24.4461Z" fill="black"/>
<path d="M162.545 24.4461H156.541V30.4504H162.545V24.4461Z" fill="black"/>
<path d="M168.55 24.4461H162.545V30.4504H168.55V24.4461Z" fill="black"/>
<path d="M174.554 24.4461H168.55V30.4504H174.554V24.4461Z" fill="black"/>
<path d="M186.562 24.4461H180.558V30.4504H186.562V24.4461Z" fill="black"/>
<path d="M18.4418 30.4504H12.4375V36.4547H18.4418V30.4504Z" fill="black"/>
<path d="M30.4504 30.4504H24.4461V36.4547H30.4504V30.4504Z" fill="black"/>
<path d="M36.4547 30.4504H30.4504V36.4547H36.4547V30.4504Z" fill="black"/>
<path d="M42.4591 30.4504H36.4547V36.4547H42.4591V30.4504Z" fill="black"/>
<path d="M54.4677 30.4504H48.4634V36.4547H54.4677V30.4504Z" fill="black"/>
<path d="M66.4763 30.4504H60.472V36.4547H66.4763V30.4504Z" fill="black"/>
<path d="M84.4892 30.4504H78.4849V36.4547H84.4892V30.4504Z" fill="black"/>
<path d="M90.4935 30.4504H84.4892V36.4547H90.4935V30.4504Z" fill="black"/>
<path d="M96.4978 30.4504H90.4935V36.4547H96.4978V30.4504Z" fill="black"/>
<path d="M102.502 30.4504H96.4978V36.4547H102.502V30.4504Z" fill="black"/>
<path d="M108.506 30.4504H102.502V36.4547H108.506V30.4504Z" fill="black"/>
<path d="M126.519 30.4504H120.515V36.4547H126.519V30.4504Z" fill="black"/>
<path d="M132.524 30.4504H126.519V36.4547H132.524V30.4504Z" fill="black"/>
<path d="M150.537 30.4504H144.532V36.4547H150.537V30.4504Z" fill="black"/>
<path d="M162.545 30.4504H156.541V36.4547H162.545V30.4504Z" fill="black"/>
<path d="M168.55 30.4504H162.545V36.4547H168.55V30.4504Z" fill="black"/>
<path d="M174.554 30.4504H168.55V36.4547H174.554V30.4504Z" fill="black"/>
<path d="M186.562 30.4504H180.558V36.4547H186.562V30.4504Z" fill="black"/>
<path d="M18.4418 36.4547H12.4375V42.4591H18.4418V36.4547Z" fill="black"/>
<path d="M30.4504 36.4547H24.4461V42.4591H30.4504V36.4547Z" fill="black"/>
<path d="M36.4547 36.4547H30.4504V42.4591H36.4547V36.4547Z" fill="black"/>
<path d="M42.4591 36.4547H36.4547V42.4591H42.4591V36.4547Z" fill="black"/>
<path d="M54.4677 36.4547H48.4634V42.4591H54.4677V36.4547Z" fill="black"/>
<path d="M66.4763 36.4547H60.472V42.4591H66.4763V36.4547Z" fill="black"/>
<path d="M72.4806 36.4547H66.4763V42.4591H72.4806V36.4547Z" fill="black"/>
<path d="M90.4935 36.4547H84.4892V42.4591H90.4935V36.4547Z" fill="black"/>
<path d="M96.4978 36.4547H90.4935V42.4591H96.4978V36.4547Z" fill="black"/>
<path d="M108.506 36.4547H102.502V42.4591H108.506V36.4547Z" fill="black"/>
<path d="M126.519 36.4547H120.515V42.4591H126.519V36.4547Z" fill="black"/>
<path d="M150.537 36.4547H144.532V42.4591H150.537V36.4547Z" fill="black"/>
<path d="M162.545 36.4547H156.541V42.4591H162.545V36.4547Z" fill="black"/>
<path d="M168.55 36.4547H162.545V42.4591H168.55V36.4547Z" fill="black"/>
<path d="M174.554 36.4547H168.55V42.4591H174.554V36.4547Z" fill="black"/>
<path d="M186.562 36.4547H180.558V42.4591H186.562V36.4547Z" fill="black"/>
<path d="M18.4418 42.4591H12.4375V48.4634H18.4418V42.4591Z" fill="black"/>
<path d="M54.4677 42.4591H48.4634V48.4634H54.4677V42.4591Z" fill="black"/>
<path d="M66.4763 42.4591H60.472V48.4634H66.4763V42.4591Z" fill="black"/>
<path d="M72.4806 42.4591H66.4763V48.4634H72.4806V42.4591Z" fill="black"/>
<path d="M78.4849 42.4591H72.4806V48.4634H78.4849V42.4591Z" fill="black"/>
<path d="M126.519 42.4591H120.515V48.4634H126.519V42.4591Z" fill="black"/>
<path d="M138.528 42.4591H132.524V48.4634H138.528V42.4591Z" fill="black"/>
<path d="M150.537 42.4591H144.532V48.4634H150.537V42.4591Z" fill="black"/>
<path d="M186.562 42.4591H180.558V48.4634H186.562V42.4591Z" fill="black"/>
<path d="M18.4418 48.4634H12.4375V54.4677H18.4418V48.4634Z" fill="black"/>
<path d="M24.4461 48.4634H18.4418V54.4677H24.4461V48.4634Z" fill="black"/>
<path d="M30.4504 48.4634H24.4461V54.4677H30.4504V48.4634Z" fill="black"/>
<path d="M36.4547 48.4634H30.4504V54.4677H36.4547V48.4634Z" fill="black"/>
<path d="M42.4591 48.4634H36.4547V54.4677H42.4591V48.4634Z" fill="black"/>
<path d="M48.4634 48.4634H42.4591V54.4677H48.4634V48.4634Z" fill="black"/>
<path d="M54.4677 48.4634H48.4634V54.4677H54.4677V48.4634Z" fill="black"/>
<path d="M66.4763 48.4634H60.472V54.4677H66.4763V48.4634Z" fill="black"/>
<path d="M78.4849 48.4634H72.4806V54.4677H78.4849V48.4634Z" fill="black"/>
<path d="M90.4935 48.4634H84.4892V54.4677H90.4935V48.4634Z" fill="black"/>
<path d="M102.502 48.4634H96.4978V54.4677H102.502V48.4634Z" fill="black"/>
<path d="M114.511 48.4634H108.506V54.4677H114.511V48.4634Z" fill="black"/>
<path d="M126.519 48.4634H120.515V54.4677H126.519V48.4634Z" fill="black"/>
<path d="M138.528 48.4634H132.524V54.4677H138.528V48.4634Z" fill="black"/>
<path d="M150.537 48.4634H144.532V54.4677H150.537V48.4634Z" fill="black"/>
<path d="M156.541 48.4634H150.537V54.4677H156.541V48.4634Z" fill="black"/>
<path d="M162.545 48.4634H156.541V54.4677H162.545V48.4634Z" fill="black"/>
<path d="M168.55 48.4634H162.545V54.4677H168.55V48.4634Z" fill="black"/>
<path d="M174.554 48.4634H168.55V54.4677H174.554V48.4634Z" fill="black"/>
<path d="M180.558 48.4634H174.554V54.4677H180.558V48.4634Z" fill="black"/>
<path d="M186.562 48.4634H180.558V54.4677H186.562V48.4634Z" fill="black"/>
<path d="M66.4763 54.4677H60.472V60.472H66.4763V54.4677Z" fill="black"/>
<path d="M72.4806 54.4677H66.4763V60.472H72.4806V54.4677Z" fill="black"/>
<path d="M90.4935 54.4677H84.4892V60.472H90.4935V54.4677Z" fill="black"/>
<path d="M96.4978 54.4677H90.4935V60.472H96.4978V54.4677Z" fill="black"/>
<path d="M108.506 54.4677H102.502V60.472H108.506V54.4677Z" fill="black"/>
<path d="M114.511 54.4677H108.506V60.472H114.511V54.4677Z" fill="black"/>
<path d="M126.519 54.4677H120.515V60.472H126.519V54.4677Z" fill="black"/>
<path d="M132.524 54.4677H126.519V60.472H132.524V54.4677Z" fill="black"/>
<path d="M138.528 54.4677H132.524V60.472H138.528V54.4677Z" fill="black"/>
<path d="M18.4418 60.472H12.4375V66.4763H18.4418V60.472Z" fill="black"/>
<path d="M24.4461 60.472H18.4418V66.4763H24.4461V60.472Z" fill="black"/>
<path d="M30.4504 60.472H24.4461V66.4763H30.4504V60.472Z" fill="black"/>
<path d="M42.4591 60.472H36.4547V66.4763H42.4591V60.472Z" fill="black"/>
<path d="M54.4677 60.472H48.4634V66.4763H54.4677V60.472Z" fill="black"/>
<path d="M66.4763 60.472H60.472V66.4763H66.4763V60.472Z" fill="black"/>
<path d="M78.4849 60.472H72.4806V66.4763H78.4849V60.472Z" fill="black"/>
<path d="M84.4892 60.472H78.4849V66.4763H84.4892V60.472Z" fill="black"/>
<path d="M90.4935 60.472H84.4892V66.4763H90.4935V60.472Z" fill="black"/>
<path d="M96.4978 60.472H90.4935V66.4763H96.4978V60.472Z" fill="black"/>
<path d="M102.502 60.472H96.4978V66.4763H102.502V60.472Z" fill="black"/>
<path d="M114.511 60.472H108.506V66.4763H114.511V60.472Z" fill="black"/>
<path d="M132.524 60.472H126.519V66.4763H132.524V60.472Z" fill="black"/>
<path d="M138.528 60.472H132.524V66.4763H138.528V60.472Z" fill="black"/>
<path d="M144.532 60.472H138.528V66.4763H144.532V60.472Z" fill="black"/>
<path d="M150.537 60.472H144.532V66.4763H150.537V60.472Z" fill="black"/>
<path d="M156.541 60.472H150.537V66.4763H156.541V60.472Z" fill="black"/>
<path d="M162.545 60.472H156.541V66.4763H162.545V60.472Z" fill="black"/>
<path d="M168.55 60.472H162.545V66.4763H168.55V60.472Z" fill="black"/>
<path d="M186.562 60.472H180.558V66.4763H186.562V60.472Z" fill="black"/>
<path d="M18.4418 66.4763H12.4375V72.4806H18.4418V66.4763Z" fill="black"/>
<path d="M30.4504 66.4763H24.4461V72.4806H30.4504V66.4763Z" fill="black"/>
<path d="M36.4547 66.4763H30.4504V72.4806H36.4547V66.4763Z" fill="black"/>
<path d="M60.472 66.4763H54.4677V72.4806H60.472V66.4763Z" fill="black"/>
<path d="M72.4806 66.4763H66.4763V72.4806H72.4806V66.4763Z" fill="black"/>
<path d="M78.4849 66.4763H72.4806V72.4806H78.4849V66.4763Z" fill="black"/>
<path d="M102.502 66.4763H96.4978V72.4806H102.502V66.4763Z" fill="black"/>
<path d="M120.515 66.4763H114.511V72.4806H120.515V66.4763Z" fill="black"/>
<path d="M126.519 66.4763H120.515V72.4806H126.519V66.4763Z" fill="black"/>
<path d="M132.524 66.4763H126.519V72.4806H132.524V66.4763Z" fill="black"/>
<path d="M138.528 66.4763H132.524V72.4806H138.528V66.4763Z" fill="black"/>
<path d="M144.532 66.4763H138.528V72.4806H144.532V66.4763Z" fill="black"/>
<path d="M162.545 66.4763H156.541V72.4806H162.545V66.4763Z" fill="black"/>
<path d="M174.554 66.4763H168.55V72.4806H174.554V66.4763Z" fill="black"/>
<path d="M24.4461 72.4806H18.4418V78.4849H24.4461V72.4806Z" fill="black"/>
<path d="M36.4547 72.4806H30.4504V78.4849H36.4547V72.4806Z" fill="black"/>
<path d="M48.4634 72.4806H42.4591V78.4849H48.4634V72.4806Z" fill="black"/>
<path d="M54.4677 72.4806H48.4634V78.4849H54.4677V72.4806Z" fill="black"/>
<path d="M66.4763 72.4806H60.472V78.4849H66.4763V72.4806Z" fill="black"/>
<path d="M78.4849 72.4806H72.4806V78.4849H78.4849V72.4806Z" fill="black"/>
<path d="M96.4978 72.4806H90.4935V78.4849H96.4978V72.4806Z" fill="black"/>
<path d="M114.511 72.4806H108.506V78.4849H114.511V72.4806Z" fill="black"/>
<path d="M120.515 72.4806H114.511V78.4849H120.515V72.4806Z" fill="black"/>
<path d="M126.519 72.4806H120.515V78.4849H126.519V72.4806Z" fill="black"/>
<path d="M132.524 72.4806H126.519V78.4849H132.524V72.4806Z" fill="black"/>
<path d="M138.528 72.4806H132.524V78.4849H138.528V72.4806Z" fill="black"/>
<path d="M144.532 72.4806H138.528V78.4849H144.532V72.4806Z" fill="black"/>
<path d="M150.537 72.4806H144.532V78.4849H150.537V72.4806Z" fill="black"/>
<path d="M174.554 72.4806H168.55V78.4849H174.554V72.4806Z" fill="black"/>
<path d="M24.4461 78.4849H18.4418V84.4892H24.4461V78.4849Z" fill="black"/>
<path d="M42.4591 78.4849H36.4547V84.4892H42.4591V78.4849Z" fill="black"/>
<path d="M48.4634 78.4849H42.4591V84.4892H48.4634V78.4849Z" fill="black"/>
<path d="M60.472 78.4849H54.4677V84.4892H60.472V78.4849Z" fill="black"/>
<path d="M90.4935 78.4849H84.4892V84.4892H90.4935V78.4849Z" fill="black"/>
<path d="M108.506 78.4849H102.502V84.4892H108.506V78.4849Z" fill="black"/>
<path d="M114.511 78.4849H108.506V84.4892H114.511V78.4849Z" fill="black"/>
<path d="M138.528 78.4849H132.524V84.4892H138.528V78.4849Z" fill="black"/>
<path d="M144.532 78.4849H138.528V84.4892H144.532V78.4849Z" fill="black"/>
<path d="M150.537 78.4849H144.532V84.4892H150.537V78.4849Z" fill="black"/>
<path d="M168.55 78.4849H162.545V84.4892H168.55V78.4849Z" fill="black"/>
<path d="M186.562 78.4849H180.558V84.4892H186.562V78.4849Z" fill="black"/>
<path d="M18.4418 84.4892H12.4375V90.4935H18.4418V84.4892Z" fill="black"/>
<path d="M24.4461 84.4892H18.4418V90.4935H24.4461V84.4892Z" fill="black"/>
<path d="M36.4547 84.4892H30.4504V90.4935H36.4547V84.4892Z" fill="black"/>
<path d="M48.4634 84.4892H42.4591V90.4935H48.4634V84.4892Z" fill="black"/>
<path d="M54.4677 84.4892H48.4634V90.4935H54.4677V84.4892Z" fill="black"/>
<path d="M60.472 84.4892H54.4677V90.4935H60.472V84.4892Z" fill="black"/>
<path d="M66.4763 84.4892H60.472V90.4935H66.4763V84.4892Z" fill="black"/>
<path d="M96.4978 84.4892H90.4935V90.4935H96.4978V84.4892Z" fill="black"/>
<path d="M108.506 84.4892H102.502V90.4935H108.506V84.4892Z" fill="black"/>
<path d="M114.511 84.4892H108.506V90.4935H114.511V84.4892Z" fill="black"/>
<path d="M120.515 84.4892H114.511V90.4935H120.515V84.4892Z" fill="black"/>
<path d="M150.537 84.4892H144.532V90.4935H150.537V84.4892Z" fill="black"/>
<path d="M162.545 84.4892H156.541V90.4935H162.545V84.4892Z" fill="black"/>
<path d="M180.558 84.4892H174.554V90.4935H180.558V84.4892Z" fill="black"/>
<path d="M60.472 90.4935H54.4677V96.4978H60.472V90.4935Z" fill="black"/>
<path d="M66.4763 90.4935H60.472V96.4978H66.4763V90.4935Z" fill="black"/>
<path d="M72.4806 90.4935H66.4763V96.4978H72.4806V90.4935Z" fill="black"/>
<path d="M78.4849 90.4935H72.4806V96.4978H78.4849V90.4935Z" fill="black"/>
<path d="M84.4892 90.4935H78.4849V96.4978H84.4892V90.4935Z" fill="black"/>
<path d="M90.4935 90.4935H84.4892V96.4978H90.4935V90.4935Z" fill="black"/>
<path d="M96.4978 90.4935H90.4935V96.4978H96.4978V90.4935Z" fill="black"/>
<path d="M102.502 90.4935H96.4978V96.4978H102.502V90.4935Z" fill="black"/>
<path d="M120.515 90.4935H114.511V96.4978H120.515V90.4935Z" fill="black"/>
<path d="M138.528 90.4935H132.524V96.4978H138.528V90.4935Z" fill="black"/>
<path d="M162.545 90.4935H156.541V96.4978H162.545V90.4935Z" fill="black"/>
<path d="M168.55 90.4935H162.545V96.4978H168.55V90.4935Z" fill="black"/>
<path d="M174.554 90.4935H168.55V96.4978H174.554V90.4935Z" fill="black"/>
<path d="M42.4591 96.4978H36.4547V102.502H42.4591V96.4978Z" fill="black"/>
<path d="M54.4677 96.4978H48.4634V102.502H54.4677V96.4978Z" fill="black"/>
<path d="M96.4978 96.4978H90.4935V102.502H96.4978V96.4978Z" fill="black"/>
<path d="M114.511 96.4978H108.506V102.502H114.511V96.4978Z" fill="black"/>
<path d="M120.515 96.4978H114.511V102.502H120.515V96.4978Z" fill="black"/>
<path d="M132.524 96.4978H126.519V102.502H132.524V96.4978Z" fill="black"/>
<path d="M138.528 96.4978H132.524V102.502H138.528V96.4978Z" fill="black"/>
<path d="M144.532 96.4978H138.528V102.502H144.532V96.4978Z" fill="black"/>
<path d="M150.537 96.4978H144.532V102.502H150.537V96.4978Z" fill="black"/>
<path d="M156.541 96.4978H150.537V102.502H156.541V96.4978Z" fill="black"/>
<path d="M162.545 96.4978H156.541V102.502H162.545V96.4978Z" fill="black"/>
<path d="M180.558 96.4978H174.554V102.502H180.558V96.4978Z" fill="black"/>
<path d="M18.4418 102.502H12.4375V108.506H18.4418V102.502Z" fill="black"/>
<path d="M30.4504 102.502H24.4461V108.506H30.4504V102.502Z" fill="black"/>
<path d="M42.4591 102.502H36.4547V108.506H42.4591V102.502Z" fill="black"/>
<path d="M48.4634 102.502H42.4591V108.506H48.4634V102.502Z" fill="black"/>
<path d="M60.472 102.502H54.4677V108.506H60.472V102.502Z" fill="black"/>
<path d="M78.4849 102.502H72.4806V108.506H78.4849V102.502Z" fill="black"/>
<path d="M90.4935 102.502H84.4892V108.506H90.4935V102.502Z" fill="black"/>
<path d="M108.506 102.502H102.502V108.506H108.506V102.502Z" fill="black"/>
<path d="M126.519 102.502H120.515V108.506H126.519V102.502Z" fill="black"/>
<path d="M138.528 102.502H132.524V108.506H138.528V102.502Z" fill="black"/>
<path d="M156.541 102.502H150.537V108.506H156.541V102.502Z" fill="black"/>
<path d="M174.554 102.502H168.55V108.506H174.554V102.502Z" fill="black"/>
<path d="M186.562 102.502H180.558V108.506H186.562V102.502Z" fill="black"/>
<path d="M18.4418 108.506H12.4375V114.511H18.4418V108.506Z" fill="black"/>
<path d="M24.4461 108.506H18.4418V114.511H24.4461V108.506Z" fill="black"/>
<path d="M30.4504 108.506H24.4461V114.511H30.4504V108.506Z" fill="black"/>
<path d="M36.4547 108.506H30.4504V114.511H36.4547V108.506Z" fill="black"/>
<path d="M42.4591 108.506H36.4547V114.511H42.4591V108.506Z" fill="black"/>
<path d="M48.4634 108.506H42.4591V114.511H48.4634V108.506Z" fill="black"/>
<path d="M54.4677 108.506H48.4634V114.511H54.4677V108.506Z" fill="black"/>
<path d="M60.472 108.506H54.4677V114.511H60.472V108.506Z" fill="black"/>
<path d="M72.4806 108.506H66.4763V114.511H72.4806V108.506Z" fill="black"/>
<path d="M78.4849 108.506H72.4806V114.511H78.4849V108.506Z" fill="black"/>
<path d="M84.4892 108.506H78.4849V114.511H84.4892V108.506Z" fill="black"/>
<path d="M90.4935 108.506H84.4892V114.511H90.4935V108.506Z" fill="black"/>
<path d="M96.4978 108.506H90.4935V114.511H96.4978V108.506Z" fill="black"/>
<path d="M102.502 108.506H96.4978V114.511H102.502V108.506Z" fill="black"/>
<path d="M114.511 108.506H108.506V114.511H114.511V108.506Z" fill="black"/>
<path d="M120.515 108.506H114.511V114.511H120.515V108.506Z" fill="black"/>
<path d="M138.528 108.506H132.524V114.511H138.528V108.506Z" fill="black"/>
<path d="M180.558 108.506H174.554V114.511H180.558V108.506Z" fill="black"/>
<path d="M18.4418 114.511H12.4375V120.515H18.4418V114.511Z" fill="black"/>
<path d="M24.4461 114.511H18.4418V120.515H24.4461V114.511Z" fill="black"/>
<path d="M36.4547 114.511H30.4504V120.515H36.4547V114.511Z" fill="black"/>
<path d="M42.4591 114.511H36.4547V120.515H42.4591V114.511Z" fill="black"/>
<path d="M48.4634 114.511H42.4591V120.515H48.4634V114.511Z" fill="black"/>
<path d="M66.4763 114.511H60.472V120.515H66.4763V114.511Z" fill="black"/>
<path d="M72.4806 114.511H66.4763V120.515H72.4806V114.511Z" fill="black"/>
<path d="M84.4892 114.511H78.4849V120.515H84.4892V114.511Z" fill="black"/>
<path d="M114.511 114.511H108.506V120.515H114.511V114.511Z" fill="black"/>
<path d="M132.524 114.511H126.519V120.515H132.524V114.511Z" fill="black"/>
<path d="M150.537 114.511H144.532V120.515H150.537V114.511Z" fill="black"/>
<path d="M156.541 114.511H150.537V120.515H156.541V114.511Z" fill="black"/>
<path d="M162.545 114.511H156.541V120.515H162.545V114.511Z" fill="black"/>
<path d="M168.55 114.511H162.545V120.515H168.55V114.511Z" fill="black"/>
<path d="M174.554 114.511H168.55V120.515H174.554V114.511Z" fill="black"/>
<path d="M180.558 114.511H174.554V120.515H180.558V114.511Z" fill="black"/>
<path d="M186.562 114.511H180.558V120.515H186.562V114.511Z" fill="black"/>
<path d="M42.4591 120.515H36.4547V126.519H42.4591V120.515Z" fill="black"/>
<path d="M54.4677 120.515H48.4634V126.519H54.4677V120.515Z" fill="black"/>
<path d="M72.4806 120.515H66.4763V126.519H72.4806V120.515Z" fill="black"/>
<path d="M78.4849 120.515H72.4806V126.519H78.4849V120.515Z" fill="black"/>
<path d="M96.4978 120.515H90.4935V126.519H96.4978V120.515Z" fill="black"/>
<path d="M102.502 120.515H96.4978V126.519H102.502V120.515Z" fill="black"/>
<path d="M114.511 120.515H108.506V126.519H114.511V120.515Z" fill="black"/>
<path d="M120.515 120.515H114.511V126.519H120.515V120.515Z" fill="black"/>
<path d="M132.524 120.515H126.519V126.519H132.524V120.515Z" fill="black"/>
<path d="M144.532 120.515H138.528V126.519H144.532V120.515Z" fill="black"/>
<path d="M150.537 120.515H144.532V126.519H150.537V120.515Z" fill="black"/>
<path d="M162.545 120.515H156.541V126.519H162.545V120.515Z" fill="black"/>
<path d="M180.558 120.515H174.554V126.519H180.558V120.515Z" fill="black"/>
<path d="M24.4461 126.519H18.4418V132.524H24.4461V126.519Z" fill="black"/>
<path d="M30.4504 126.519H24.4461V132.524H30.4504V126.519Z" fill="black"/>
<path d="M42.4591 126.519H36.4547V132.524H42.4591V126.519Z" fill="black"/>
<path d="M72.4806 126.519H66.4763V132.524H72.4806V126.519Z" fill="black"/>
<path d="M102.502 126.519H96.4978V132.524H102.502V126.519Z" fill="black"/>
<path d="M108.506 126.519H102.502V132.524H108.506V126.519Z" fill="black"/>
<path d="M114.511 126.519H108.506V132.524H114.511V126.519Z" fill="black"/>
<path d="M120.515 126.519H114.511V132.524H120.515V126.519Z" fill="black"/>
<path d="M126.519 126.519H120.515V132.524H126.519V126.519Z" fill="black"/>
<path d="M138.528 126.519H132.524V132.524H138.528V126.519Z" fill="black"/>
<path d="M150.537 126.519H144.532V132.524H150.537V126.519Z" fill="black"/>
<path d="M156.541 126.519H150.537V132.524H156.541V126.519Z" fill="black"/>
<path d="M162.545 126.519H156.541V132.524H162.545V126.519Z" fill="black"/>
<path d="M168.55 126.519H162.545V132.524H168.55V126.519Z" fill="black"/>
<path d="M36.4547 132.524H30.4504V138.528H36.4547V132.524Z" fill="black"/>
<path d="M48.4634 132.524H42.4591V138.528H48.4634V132.524Z" fill="black"/>
<path d="M54.4677 132.524H48.4634V138.528H54.4677V132.524Z" fill="black"/>
<path d="M72.4806 132.524H66.4763V138.528H72.4806V132.524Z" fill="black"/>
<path d="M84.4892 132.524H78.4849V138.528H84.4892V132.524Z" fill="black"/>
<path d="M90.4935 132.524H84.4892V138.528H90.4935V132.524Z" fill="black"/>
<path d="M102.502 132.524H96.4978V138.528H102.502V132.524Z" fill="black"/>
<path d="M114.511 132.524H108.506V138.528H114.511V132.524Z" fill="black"/>
<path d="M120.515 132.524H114.511V138.528H120.515V132.524Z" fill="black"/>
<path d="M132.524 132.524H126.519V138.528H132.524V132.524Z" fill="black"/>
<path d="M138.528 132.524H132.524V138.528H138.528V132.524Z" fill="black"/>
<path d="M144.532 132.524H138.528V138.528H144.532V132.524Z" fill="black"/>
<path d="M150.537 132.524H144.532V138.528H150.537V132.524Z" fill="black"/>
<path d="M156.541 132.524H150.537V138.528H156.541V132.524Z" fill="black"/>
<path d="M162.545 132.524H156.541V138.528H162.545V132.524Z" fill="black"/>
<path d="M174.554 132.524H168.55V138.528H174.554V132.524Z" fill="black"/>
<path d="M186.562 132.524H180.558V138.528H186.562V132.524Z" fill="black"/>
<path d="M66.4763 138.528H60.472V144.532H66.4763V138.528Z" fill="black"/>
<path d="M78.4849 138.528H72.4806V144.532H78.4849V138.528Z" fill="black"/>
<path d="M102.502 138.528H96.4978V144.532H102.502V138.528Z" fill="black"/>
<path d="M138.528 138.528H132.524V144.532H138.528V138.528Z" fill="black"/>
<path d="M162.545 138.528H156.541V144.532H162.545V138.528Z" fill="black"/>
<path d="M168.55 138.528H162.545V144.532H168.55V138.528Z" fill="black"/>
<path d="M174.554 138.528H168.55V144.532H174.554V138.528Z" fill="black"/>
<path d="M180.558 138.528H174.554V144.532H180.558V138.528Z" fill="black"/>
<path d="M18.4418 144.532H12.4375V150.537H18.4418V144.532Z" fill="black"/>
<path d="M24.4461 144.532H18.4418V150.537H24.4461V144.532Z" fill="black"/>
<path d="M30.4504 144.532H24.4461V150.537H30.4504V144.532Z" fill="black"/>
<path d="M36.4547 144.532H30.4504V150.537H36.4547V144.532Z" fill="black"/>
<path d="M42.4591 144.532H36.4547V150.537H42.4591V144.532Z" fill="black"/>
<path d="M48.4634 144.532H42.4591V150.537H48.4634V144.532Z" fill="black"/>
<path d="M54.4677 144.532H48.4634V150.537H54.4677V144.532Z" fill="black"/>
<path d="M90.4935 144.532H84.4892V150.537H90.4935V144.532Z" fill="black"/>
<path d="M96.4978 144.532H90.4935V150.537H96.4978V144.532Z" fill="black"/>
<path d="M102.502 144.532H96.4978V150.537H102.502V144.532Z" fill="black"/>
<path d="M138.528 144.532H132.524V150.537H138.528V144.532Z" fill="black"/>
<path d="M150.537 144.532H144.532V150.537H150.537V144.532Z" fill="black"/>
<path d="M162.545 144.532H156.541V150.537H162.545V144.532Z" fill="black"/>
<path d="M180.558 144.532H174.554V150.537H180.558V144.532Z" fill="black"/>
<path d="M18.4418 150.537H12.4375V156.541H18.4418V150.537Z" fill="black"/>
<path d="M54.4677 150.537H48.4634V156.541H54.4677V150.537Z" fill="black"/>
<path d="M72.4806 150.537H66.4763V156.541H72.4806V150.537Z" fill="black"/>
<path d="M78.4849 150.537H72.4806V156.541H78.4849V150.537Z" fill="black"/>
<path d="M84.4892 150.537H78.4849V156.541H84.4892V150.537Z" fill="black"/>
<path d="M90.4935 150.537H84.4892V156.541H90.4935V150.537Z" fill="black"/>
<path d="M96.4978 150.537H90.4935V156.541H96.4978V150.537Z" fill="black"/>
<path d="M102.502 150.537H96.4978V156.541H102.502V150.537Z" fill="black"/>
<path d="M114.511 150.537H108.506V156.541H114.511V150.537Z" fill="black"/>
<path d="M126.519 150.537H120.515V156.541H126.519V150.537Z" fill="black"/>
<path d="M138.528 150.537H132.524V156.541H138.528V150.537Z" fill="black"/>
<path d="M162.545 150.537H156.541V156.541H162.545V150.537Z" fill="black"/>
<path d="M168.55 150.537H162.545V156.541H168.55V150.537Z" fill="black"/>
<path d="M174.554 150.537H168.55V156.541H174.554V150.537Z" fill="black"/>
<path d="M18.4418 156.541H12.4375V162.545H18.4418V156.541Z" fill="black"/>
<path d="M30.4504 156.541H24.4461V162.545H30.4504V156.541Z" fill="black"/>
<path d="M36.4547 156.541H30.4504V162.545H36.4547V156.541Z" fill="black"/>
<path d="M42.4591 156.541H36.4547V162.545H42.4591V156.541Z" fill="black"/>
<path d="M54.4677 156.541H48.4634V162.545H54.4677V156.541Z" fill="black"/>
<path d="M66.4763 156.541H60.472V162.545H66.4763V156.541Z" fill="black"/>
<path d="M72.4806 156.541H66.4763V162.545H72.4806V156.541Z" fill="black"/>
<path d="M84.4892 156.541H78.4849V162.545H84.4892V156.541Z" fill="black"/>
<path d="M96.4978 156.541H90.4935V162.545H96.4978V156.541Z" fill="black"/>
<path d="M102.502 156.541H96.4978V162.545H102.502V156.541Z" fill="black"/>
<path d="M120.515 156.541H114.511V162.545H120.515V156.541Z" fill="black"/>
<path d="M132.524 156.541H126.519V162.545H132.524V156.541Z" fill="black"/>
<path d="M138.528 156.541H132.524V162.545H138.528V156.541Z" fill="black"/>
<path d="M144.532 156.541H138.528V162.545H144.532V156.541Z" fill="black"/>
<path d="M150.537 156.541H144.532V162.545H150.537V156.541Z" fill="black"/>
<path d="M156.541 156.541H150.537V162.545H156.541V156.541Z" fill="black"/>
<path d="M162.545 156.541H156.541V162.545H162.545V156.541Z" fill="black"/>
<path d="M174.554 156.541H168.55V162.545H174.554V156.541Z" fill="black"/>
<path d="M180.558 156.541H174.554V162.545H180.558V156.541Z" fill="black"/>
<path d="M186.562 156.541H180.558V162.545H186.562V156.541Z" fill="black"/>
<path d="M18.4418 162.545H12.4375V168.55H18.4418V162.545Z" fill="black"/>
<path d="M30.4504 162.545H24.4461V168.55H30.4504V162.545Z" fill="black"/>
<path d="M36.4547 162.545H30.4504V168.55H36.4547V162.545Z" fill="black"/>
<path d="M42.4591 162.545H36.4547V168.55H42.4591V162.545Z" fill="black"/>
<path d="M54.4677 162.545H48.4634V168.55H54.4677V162.545Z" fill="black"/>
<path d="M84.4892 162.545H78.4849V168.55H84.4892V162.545Z" fill="black"/>
<path d="M96.4978 162.545H90.4935V168.55H96.4978V162.545Z" fill="black"/>
<path d="M114.511 162.545H108.506V168.55H114.511V162.545Z" fill="black"/>
<path d="M126.519 162.545H120.515V168.55H126.519V162.545Z" fill="black"/>
<path d="M132.524 162.545H126.519V168.55H132.524V162.545Z" fill="black"/>
<path d="M138.528 162.545H132.524V168.55H138.528V162.545Z" fill="black"/>
<path d="M144.532 162.545H138.528V168.55H144.532V162.545Z" fill="black"/>
<path d="M150.537 162.545H144.532V168.55H150.537V162.545Z" fill="black"/>
<path d="M162.545 162.545H156.541V168.55H162.545V162.545Z" fill="black"/>
<path d="M180.558 162.545H174.554V168.55H180.558V162.545Z" fill="black"/>
<path d="M18.4418 168.55H12.4375V174.554H18.4418V168.55Z" fill="black"/>
<path d="M30.4504 168.55H24.4461V174.554H30.4504V168.55Z" fill="black"/>
<path d="M36.4547 168.55H30.4504V174.554H36.4547V168.55Z" fill="black"/>
<path d="M42.4591 168.55H36.4547V174.554H42.4591V168.55Z" fill="black"/>
<path d="M54.4677 168.55H48.4634V174.554H54.4677V168.55Z" fill="black"/>
<path d="M66.4763 168.55H60.472V174.554H66.4763V168.55Z" fill="black"/>
<path d="M72.4806 168.55H66.4763V174.554H72.4806V168.55Z" fill="black"/>
<path d="M78.4849 168.55H72.4806V174.554H78.4849V168.55Z" fill="black"/>
<path d="M96.4978 168.55H90.4935V174.554H96.4978V168.55Z" fill="black"/>
<path d="M102.502 168.55H96.4978V174.554H102.502V168.55Z" fill="black"/>
<path d="M108.506 168.55H102.502V174.554H108.506V168.55Z" fill="black"/>
<path d="M120.515 168.55H114.511V174.554H120.515V168.55Z" fill="black"/>
<path d="M132.524 168.55H126.519V174.554H132.524V168.55Z" fill="black"/>
<path d="M138.528 168.55H132.524V174.554H138.528V168.55Z" fill="black"/>
<path d="M174.554 168.55H168.55V174.554H174.554V168.55Z" fill="black"/>
<path d="M180.558 168.55H174.554V174.554H180.558V168.55Z" fill="black"/>
<path d="M18.4418 174.554H12.4375V180.558H18.4418V174.554Z" fill="black"/>
<path d="M54.4677 174.554H48.4634V180.558H54.4677V174.554Z" fill="black"/>
<path d="M66.4763 174.554H60.472V180.558H66.4763V174.554Z" fill="black"/>
<path d="M72.4806 174.554H66.4763V180.558H72.4806V174.554Z" fill="black"/>
<path d="M96.4978 174.554H90.4935V180.558H96.4978V174.554Z" fill="black"/>
<path d="M120.515 174.554H114.511V180.558H120.515V174.554Z" fill="black"/>
<path d="M138.528 174.554H132.524V180.558H138.528V174.554Z" fill="black"/>
<path d="M162.545 174.554H156.541V180.558H162.545V174.554Z" fill="black"/>
<path d="M168.55 174.554H162.545V180.558H168.55V174.554Z" fill="black"/>
<path d="M174.554 174.554H168.55V180.558H174.554V174.554Z" fill="black"/>
<path d="M18.4418 180.558H12.4375V186.562H18.4418V180.558Z" fill="black"/>
<path d="M24.4461 180.558H18.4418V186.562H24.4461V180.558Z" fill="black"/>
<path d="M30.4504 180.558H24.4461V186.562H30.4504V180.558Z" fill="black"/>
<path d="M36.4547 180.558H30.4504V186.562H36.4547V180.558Z" fill="black"/>
<path d="M42.4591 180.558H36.4547V186.562H42.4591V180.558Z" fill="black"/>
<path d="M48.4634 180.558H42.4591V186.562H48.4634V180.558Z" fill="black"/>
<path d="M54.4677 180.558H48.4634V186.562H54.4677V180.558Z" fill="black"/>
<path d="M66.4763 180.558H60.472V186.562H66.4763V180.558Z" fill="black"/>
<path d="M84.4892 180.558H78.4849V186.562H84.4892V180.558Z" fill="black"/>
<path d="M90.4935 180.558H84.4892V186.562H90.4935V180.558Z" fill="black"/>
<path d="M96.4978 180.558H90.4935V186.562H96.4978V180.558Z" fill="black"/>
<path d="M102.502 180.558H96.4978V186.562H102.502V180.558Z" fill="black"/>
<path d="M108.506 180.558H102.502V186.562H108.506V180.558Z" fill="black"/>
<path d="M126.519 180.558H120.515V186.562H126.519V180.558Z" fill="black"/>
<path d="M174.554 180.558H168.55V186.562H174.554V180.558Z" fill="black"/>
<path d="M180.558 180.558H174.554V186.562H180.558V180.558Z" fill="black"/>
</svg>
