<svg width="24" height="24" viewBox="0 0 24 24" fill="none" xmlns="http://www.w3.org/2000/svg">
<path d="M12.87 15.07L10.33 12.56L10.36 12.53C12.1 10.59 13.34 8.36 14.07 6H17V4H10V2H8V4H1V5.99H12.17C11.5 7.92 10.44 9.75 9 11.35C8.07 10.32 7.3 9.19 6.69 8H4.69C5.42 9.63 6.42 11.17 7.67 12.56L2.58 17.58L4 19L9 14L12.11 17.11L12.87 15.07Z" fill="#A3BBFF"/>
<path d="M18.5 10H16.5L12 22H14L15.12 19H19.87L21 22H23L18.5 10Z" fill="url(#paint0_linear_152_705)"/>
<path d="M15.8799 17L17.4999 12.67L19.1199 17H15.8799H15.8799Z" fill="#04103A"/>
<defs>
<linearGradient id="paint0_linear_152_705" x1="8.81579" y1="-2.75" x2="27.7758" y2="0.424653" gradientUnits="userSpaceOnUse">
<stop stop-color="#3E60F9"/>
<stop offset="1" stop-color="#3D54F8"/>
</linearGradient>
</defs>
</svg>
