<svg width="24" height="24" viewBox="0 0 24 24" fill="none" xmlns="http://www.w3.org/2000/svg">
<path d="M9 22H18C18.83 22 19.54 21.5 19.84 20.78L22.86 13.73C22.95 13.5 23 13.26 23 13V11C23 9.9 22.1 9 21 9H14.69L15.64 4.43L15.67 4.11C15.67 3.7 15.5 3.32 15.23 3.05L14.17 2L7.58 8.59C7.22 8.95 7 9.45 7 10V20C7 21.1 7.9 22 9 22Z" fill="url(#paint0_linear_152_707)"/>
<path d="M9 10L13.34 5.66L12 11H21V13L18 20H9V10Z" fill="url(#paint1_linear_152_707)"/>
<path d="M1 10H5V22H1V10Z" fill="#A3BBFF"/>
<defs>
<linearGradient id="paint0_linear_152_707" x1="2.36842" y1="-19.25" x2="30.1271" y2="-15.1937" gradientUnits="userSpaceOnUse">
<stop stop-color="#3E60F9"/>
<stop offset="1" stop-color="#3D54F8"/>
</linearGradient>
<linearGradient id="paint1_linear_152_707" x1="5.52632" y1="-9.57624" x2="26.3044" y2="-6.40022" gradientUnits="userSpaceOnUse">
<stop stop-color="#3E60F9"/>
<stop offset="1" stop-color="#3D54F8"/>
</linearGradient>
</defs>
</svg>
