<svg width="76" height="12" viewBox="0 0 76 12" fill="none" xmlns="http://www.w3.org/2000/svg">
<path d="M0.0313053 4.53466C0.109859 4.2811 0.32538 4.10101 0.58036 4.07703L4.04388 3.74887L5.41345 0.403834C5.51444 0.158687 5.74442 0 5.99995 0C6.25548 0 6.48547 0.158687 6.58645 0.404407L7.95602 3.74887L11.4201 4.07703C11.6746 4.10159 11.8896 4.2811 11.9686 4.53466C12.0476 4.78821 11.9746 5.06632 11.7821 5.24163L9.16409 7.6375L9.93608 11.186C9.99257 11.4469 9.89552 11.7166 9.68806 11.8731C9.57654 11.9572 9.44608 12 9.31451 12C9.20108 12 9.08856 11.9681 8.98757 11.905L5.99995 10.0418L3.01343 11.905C2.79489 12.0422 2.5194 12.0297 2.3124 11.8731C2.10484 11.7162 2.00788 11.4464 2.06437 11.186L2.83636 7.6375L0.218352 5.24211C0.0258121 5.06632 -0.0477066 4.78869 0.0313053 4.53466Z" fill="#FFAF34"/>
<path d="M16.0313 4.53466C16.1099 4.2811 16.3254 4.10101 16.5804 4.07703L20.0439 3.74887L21.4135 0.403834C21.5144 0.158687 21.7444 0 22 0C22.2555 0 22.4855 0.158687 22.5865 0.404407L23.956 3.74887L27.4201 4.07703C27.6746 4.10159 27.8896 4.2811 27.9686 4.53466C28.0476 4.78821 27.9746 5.06632 27.7821 5.24163L25.1641 7.6375L25.9361 11.186C25.9926 11.4469 25.8955 11.7166 25.6881 11.8731C25.5765 11.9572 25.4461 12 25.3145 12C25.2011 12 25.0886 11.9681 24.9876 11.905L22 10.0418L19.0134 11.905C18.7949 12.0422 18.5194 12.0297 18.3124 11.8731C18.1048 11.7162 18.0079 11.4464 18.0644 11.186L18.8364 7.6375L16.2184 5.24211C16.0258 5.06632 15.9523 4.78869 16.0313 4.53466Z" fill="#FFAF34"/>
<path d="M32.0313 4.53466C32.1099 4.2811 32.3254 4.10101 32.5804 4.07703L36.0439 3.74887L37.4135 0.403834C37.5144 0.158687 37.7444 0 38 0C38.2555 0 38.4855 0.158687 38.5865 0.404407L39.956 3.74887L43.4201 4.07703C43.6746 4.10159 43.8896 4.2811 43.9686 4.53466C44.0476 4.78821 43.9746 5.06632 43.7821 5.24163L41.1641 7.6375L41.9361 11.186C41.9926 11.4469 41.8955 11.7166 41.6881 11.8731C41.5765 11.9572 41.4461 12 41.3145 12C41.2011 12 41.0886 11.9681 40.9876 11.905L38 10.0418L35.0134 11.905C34.7949 12.0422 34.5194 12.0297 34.3124 11.8731C34.1048 11.7162 34.0079 11.4464 34.0644 11.186L34.8364 7.6375L32.2184 5.24211C32.0258 5.06632 31.9523 4.78869 32.0313 4.53466Z" fill="#FFAF34"/>
<path d="M48.0313 4.53466C48.1099 4.2811 48.3254 4.10101 48.5804 4.07703L52.0439 3.74887L53.4135 0.403834C53.5144 0.158687 53.7444 0 54 0C54.2555 0 54.4855 0.158687 54.5865 0.404407L55.956 3.74887L59.4201 4.07703C59.6746 4.10159 59.8896 4.2811 59.9686 4.53466C60.0476 4.78821 59.9746 5.06632 59.7821 5.24163L57.1641 7.6375L57.9361 11.186C57.9926 11.4469 57.8955 11.7166 57.6881 11.8731C57.5765 11.9572 57.4461 12 57.3145 12C57.2011 12 57.0886 11.9681 56.9876 11.905L54 10.0418L51.0134 11.905C50.7949 12.0422 50.5194 12.0297 50.3124 11.8731C50.1048 11.7162 50.0079 11.4464 50.0644 11.186L50.8364 7.6375L48.2184 5.24211C48.0258 5.06632 47.9523 4.78869 48.0313 4.53466Z" fill="#FFAF34"/>
<path d="M64.0313 4.53466C64.1099 4.2811 64.3254 4.10101 64.5804 4.07703L68.0439 3.74887L69.4135 0.403834C69.5144 0.158687 69.7444 0 70 0C70.2555 0 70.4855 0.158687 70.5865 0.404407L71.956 3.74887L75.4201 4.07703C75.6746 4.10159 75.8896 4.2811 75.9686 4.53466C76.0476 4.78821 75.9746 5.06632 75.7821 5.24163L73.1641 7.6375L73.9361 11.186C73.9926 11.4469 73.8955 11.7166 73.6881 11.8731C73.5765 11.9572 73.4461 12 73.3145 12C73.2011 12 73.0886 11.9681 72.9876 11.905L70 10.0418L67.0134 11.905C66.7949 12.0422 66.5194 12.0297 66.3124 11.8731C66.1048 11.7162 66.0079 11.4464 66.0644 11.186L66.8364 7.6375L64.2184 5.24211C64.0258 5.06632 63.9523 4.78869 64.0313 4.53466Z" fill="#FFAF34"/>
<path d="M70 10.0418V0.404407C70 0.284588 70 0.284588 70 0C70.2556 0 70.4855 0.158687 70.5865 0.404407L71.9561 3.74887L75.4201 4.07703C75.6746 4.10159 75.8896 4.2811 75.9686 4.53466C76.0476 4.78821 75.9746 5.06632 75.7821 5.24163L73.1641 7.6375L73.9361 11.186C73.9926 11.4469 73.8955 11.7166 73.6881 11.8731C73.5766 11.9572 73.4461 12 73.3145 12C73.2011 12 73.0886 11.9681 72.9876 11.905L70 10.0418Z" fill="#DADADA"/>
</svg>
